<?xml version="1.0" encoding="UTF-8"?>
<svg xmlns="http://www.w3.org/2000/svg" version="1.1" width="500" height="500" viewBox="0 0 500 500"><rect x="0" y="0" width="500" height="500" fill="#ffffff"/><g transform="scale(23.81)"><g transform="translate(0,0)"><path fill-rule="evenodd" d="M10 0L10 1L11 1L11 2L12 2L12 3L13 3L13 0L12 0L12 1L11 1L11 0ZM8 2L8 8L9 8L9 5L10 5L10 7L11 7L11 8L10 8L10 9L11 9L11 8L12 8L12 10L10 10L10 12L11 12L11 13L10 13L10 16L9 16L9 15L8 15L8 19L9 19L9 20L8 20L8 21L9 21L9 20L10 20L10 21L14 21L14 20L15 20L15 18L16 18L16 17L15 17L15 18L14 18L14 17L13 17L13 16L14 16L14 15L16 15L16 16L17 16L17 19L16 19L16 20L18 20L18 21L20 21L20 20L21 20L21 19L18 19L18 18L20 18L20 17L21 17L21 15L20 15L20 14L19 14L19 11L18 11L18 10L19 10L19 8L14 8L14 9L13 9L13 4L11 4L11 3L9 3L9 2ZM11 5L11 7L12 7L12 5ZM0 8L0 10L1 10L1 13L3 13L3 12L4 12L4 13L5 13L5 12L4 12L4 11L3 11L3 9L7 9L7 8L2 8L2 10L1 10L1 8ZM14 9L14 10L15 10L15 12L14 12L14 11L13 11L13 10L12 10L12 11L11 11L11 12L12 12L12 13L11 13L11 16L10 16L10 18L9 18L9 19L10 19L10 20L11 20L11 18L12 18L12 13L13 13L13 12L14 12L14 14L17 14L17 13L18 13L18 12L16 12L16 11L17 11L17 9L16 9L16 10L15 10L15 9ZM20 9L20 11L21 11L21 9ZM6 10L6 11L8 11L8 14L9 14L9 11L8 11L8 10ZM2 11L2 12L3 12L3 11ZM6 12L6 13L7 13L7 12ZM18 14L18 15L17 15L17 16L19 16L19 17L20 17L20 15L19 15L19 14ZM12 19L12 20L14 20L14 19ZM0 0L7 0L7 7L0 7ZM1 1L1 6L6 6L6 1ZM2 2L5 2L5 5L2 5ZM14 0L21 0L21 7L14 7ZM15 1L15 6L20 6L20 1ZM16 2L19 2L19 5L16 5ZM0 14L7 14L7 21L0 21ZM1 15L1 20L6 20L6 15ZM2 16L5 16L5 19L2 19Z" fill="#000000"/></g></g></svg>
